#format: frame checksums
#version: 2
#hash: MD5
#tb 0: 1001/30000
#media_type 0: video
#codec_id 0: rawvideo
#dimensions 0: 8x64
#sar 0: 1/1
#stream#, dts,        pts, duration,     size, hash
0,          0,          0,        1,      768, 764bd02b781a38c621a109c12f3d9393
0,          1,          1,        1,      768, 79496bd2b9212026af816b3b7a0587d5
0,          2,          2,        1,      768, 2a3afd47ba3d075033fd94d5c3746c45
0,          3,          3,        1,      768, fca00cad8d37a6646337baebadd0ca31
0,          4,          4,        1,      768, aca376fb3f8a5ef670ecc2430037262a
0,          5,          5,        1,      768, 7e6c8d96d1e24855c3e380f1bf2ce02c
0,          6,          6,        1,      768, 09e051241972969d439f27f324d78490
0,          7,          7,        1,      768, 2566b2a425caaba41305bf04ff10ea01
0,          8,          8,        1,      768, db3995bedee42ada1b4ee63c339daf1b
0,          9,          9,        1,      768, b00b8f1bf4fd907f0487738f5b5442c6
